HIERARCHY
ROOT Hips
{
	OFFSET -276.353088 91.340736 254.724106
	CHANNELS 6 Xposition Yposition Zposition Zrotation Yrotation Xrotation 
	JOINT LeftUpLeg
	{
		OFFSET 0.103459 1.857828 10.548492
		CHANNELS 3 Xrotation Yrotation Zrotation
		JOINT LeftLeg
		{
			OFFSET 43.500004 -0.000011 -0.000004
			CHANNELS 3 Xrotation Yrotation Zrotation
			JOINT LeftFoot
			{
				OFFSET 42.372200 0.000004 -0.000018
				CHANNELS 3 Xrotation Yrotation Zrotation
				JOINT LeftToe
				{
					OFFSET 17.299999 -0.000001 -0.000005
					CHANNELS 3 Xrotation Yrotation Zrotation
					End Site
					{
						OFFSET 0.000000 0.000000 0.000000
					}
				}
			}
		}
	}
	JOINT RightUpLeg
	{
		OFFSET 0.103456 1.857824 -10.548500
		CHANNELS 3 Xrotation Yrotation Zrotation
		JOINT RightLeg
		{
			OFFSET 43.500046 -0.000004 0.000013
			CHANNELS 3 Xrotation Yrotation Zrotation
			JOINT RightFoot
			{
				OFFSET 42.372269 -0.000015 0.000020
				CHANNELS 3 Xrotation Yrotation Zrotation
				JOINT RightToe
				{
					OFFSET 17.299974 -0.000010 -0.000002
					CHANNELS 3 Xrotation Yrotation Zrotation
					End Site
					{
						OFFSET 0.000000 0.000000 0.000000
					}
				}
			}
		}
	}
	JOINT Spine
	{
		OFFSET 6.901967 -2.603733 0.000003
		CHANNELS 3 Xrotation Yrotation Zrotation
		JOINT Spine1
		{
			OFFSET 12.588101 0.000006 -0.000014
			CHANNELS 3 Xrotation Yrotation Zrotation
			JOINT Spine2
			{
				OFFSET 12.343203 -0.000006 0.000010
				CHANNELS 3 Xrotation Yrotation Zrotation
				JOINT Neck
				{
					OFFSET 25.832886 -0.000004 0.000009
					CHANNELS 3 Xrotation Yrotation Zrotation
					JOINT Head
					{
						OFFSET 11.766619 0.000000 -0.000008
						CHANNELS 3 Xrotation Yrotation Zrotation
						End Site
						{
							OFFSET 0.000000 0.000000 0.000000
						}
					}
				}
				JOINT LeftShoulder
				{
					OFFSET 19.745895 -1.480373 6.000121
					CHANNELS 3 Xrotation Yrotation Zrotation
					JOINT LeftArm
					{
						OFFSET 11.284116 -0.000025 -0.000019
						CHANNELS 3 Xrotation Yrotation Zrotation
						JOINT LeftForeArm
						{
							OFFSET 33.000046 0.000010 0.000041
							CHANNELS 3 Xrotation Yrotation Zrotation
							JOINT LeftHand
							{
								OFFSET 25.200005 0.000005 0.000001
								CHANNELS 3 Xrotation Yrotation Zrotation
								End Site
								{
									OFFSET 0.000000 0.000000 0.000000
								}
							}
						}
					}
				}
				JOINT RightShoulder
				{
					OFFSET 19.746092 -1.480366 -6.000068
					CHANNELS 3 Xrotation Yrotation Zrotation
					JOINT RightArm
					{
						OFFSET 11.284133 -0.000025 -0.000013
						CHANNELS 3 Xrotation Yrotation Zrotation
						JOINT RightForeArm
						{
							OFFSET 33.000114 0.000025 -0.000011
							CHANNELS 3 Xrotation Yrotation Zrotation
							JOINT RightHand
							{
								OFFSET 25.199759 0.000128 0.000418
								CHANNELS 3 Xrotation Yrotation Zrotation
								End Site
								{
									OFFSET 0.000000 0.000000 0.000000
								}
							}
						}
					}
				}
			}
		}
	}
}
MOTION
Frames: 11
Frame Time: 0.033333
5.362402 90.749321 -246.858902 94.175700 -3.201141 50.177401 163.979906 4.942790 168.258500 -23.261514 3.845915 -15.028778 86.535157 9.396108 -4.457529 21.454560 0.003110 0.000018 145.105293 8.290204 -176.817970 -64.874974 0.580833 9.731650 72.784763 -4.580070 7.604383 21.454548 -0.003090 -0.000002 7.150109 -1.458705 -0.859588 4.311063 -2.884658 -1.772958 3.992696 -2.895442 -1.755504 8.863262 -9.559534 6.356747 -5.967535 2.404228 4.597799 173.963989 -72.888323 4.847043 5.792263 52.783654 11.880755 -44.203567 -14.328501 1.557945 7.117393 -12.370088 -2.346445 -162.246089 79.197314 19.564957 -16.240585 -58.431114 -41.349538 -29.745979 11.463108 -0.996719 13.956652 4.643138 12.477589 
4.861784 90.690613 -245.831802 94.321122 -3.328107 49.425810 164.530637 5.078906 168.008146 -23.325279 3.923225 -15.329695 87.293342 9.552434 -4.760205 21.454558 0.003110 0.000016 143.668016 7.807106 -176.622217 -61.163791 1.342775 9.981006 72.987948 -4.783156 7.644038 21.454550 -0.003091 -0.000001 7.138341 -1.449136 -0.985851 4.290476 -2.861052 -2.024864 3.972161 -2.873359 -2.007551 8.687886 -9.516583 6.391243 -6.072405 2.406103 4.619965 173.552006 -73.122509 5.262939 5.498318 52.127789 11.843005 -45.485945 -14.529281 1.608805 6.495852 -11.651846 -1.731133 -163.261943 79.154980 18.531032 -16.375932 -59.462138 -41.269485 -31.479345 12.650321 -1.107480 12.582442 4.021831 10.584703 
4.330637 90.629677 -244.830704 94.599787 -3.488021 48.827605 165.063324 5.372096 168.053936 -23.180438 4.001856 -15.700972 87.963384 9.759877 -5.066049 21.454562 0.003110 0.000020 142.491775 7.488005 -176.246242 -56.817236 2.216769 9.396228 73.196125 -4.455023 7.475306 21.454550 -0.003092 -0.000000 7.102411 -1.454986 -1.086395 4.221162 -2.869733 -2.225331 3.902917 -2.883243 -2.207955 8.401142 -9.363181 6.397532 -5.846564 2.465161 4.607855 172.930022 -73.266387 5.896987 5.326380 51.368634 11.754377 -46.813215 -14.524648 1.648494 5.753079 -10.413066 -0.046044 -163.257080 79.004539 18.537002 -16.732794 -60.749615 -41.166790 -33.142612 13.785921 -1.215533 11.684242 3.686056 8.980612 
3.715121 90.549431 -243.853302 94.964812 -3.640476 48.492308 165.584631 5.733897 168.461807 -23.002013 3.971675 -16.123276 88.602382 10.008647 -5.361522 21.454555 0.003110 0.000018 141.795301 7.285796 -175.121515 -51.855431 2.751327 8.506165 73.191392 -4.051656 6.767683 21.454558 -0.003095 -0.000000 7.029062 -1.466521 -1.188418 4.077219 -2.890686 -2.427983 3.758984 -2.905419 -2.410495 8.624323 -9.262604 6.256950 -5.782927 2.410518 4.513924 172.191063 -73.403613 6.650976 5.312027 50.941248 11.616429 -47.898501 -14.601187 1.687050 5.013397 -9.064414 1.257633 -163.774932 79.014019 18.009985 -16.936660 -62.188572 -40.971139 -34.507034 14.487279 -1.290830 10.901131 3.836688 7.523383 
3.045723 90.506050 -242.914093 95.280927 -3.873781 48.394288 166.105119 5.983513 168.530615 -22.740666 4.067730 -16.210477 89.153640 10.040903 -5.613127 21.454560 0.003108 0.000018 141.831214 7.005909 -173.026573 -45.989484 2.731630 7.739357 72.905542 -3.630376 6.323529 21.454555 -0.003093 -0.000000 6.957852 -1.450785 -1.284532 3.936752 -2.857488 -2.617921 3.618588 -2.873383 -2.600625 8.802792 -9.151117 6.079048 -5.677589 2.361900 4.377405 171.685069 -73.595309 7.163940 5.231852 51.045617 11.004193 -48.685981 -14.379365 1.697046 4.595929 -8.638822 2.194373 -163.835939 79.116690 17.948001 -17.298511 -63.547377 -40.833401 -35.403490 14.859051 -1.335325 10.551681 5.816823 5.164769 
2.292462 90.498177 -241.981705 95.559292 -4.148087 48.597687 166.731092 6.110106 168.690018 -22.329480 4.031007 -16.135910 89.620886 9.982469 -5.776638 21.454558 0.003110 0.000017 142.571115 6.552400 -169.940803 -39.336330 2.109814 7.133062 72.719016 -3.436263 5.492288 21.454553 -0.003093 0.000000 6.886555 -1.417525 -1.374171 3.795400 -2.789743 -2.794364 3.477312 -2.806695 -2.777474 8.817535 -8.967425 5.906870 -5.389468 2.483538 4.200238 170.978992 -73.813294 7.880006 5.048175 51.453195 10.904876 -48.992315 -14.442503 1.710953 4.732577 -8.557499 1.883418 -163.529086 79.133581 18.259973 -17.392112 -64.489471 -41.066772 -35.463066 15.213505 -1.359642 11.216870 7.463110 1.569808 
1.454007 90.479362 -241.057297 95.792604 -4.431828 49.151400 167.394112 6.151702 168.766024 -21.941144 4.015546 -15.802433 90.126477 9.757502 -5.919452 21.454558 0.003118 0.000019 143.926839 5.980898 -166.722882 -32.235201 1.433195 6.204242 72.322817 -3.059775 4.496839 21.454557 -0.003092 -0.000000 6.817355 -1.369570 -1.472542 3.658003 -2.692472 -2.987888 3.339994 -2.710600 -2.971591 8.804238 -8.713200 5.748468 -5.182336 2.687939 4.022830 170.224010 -73.962213 8.647946 4.923454 51.959749 11.233271 -48.996014 -14.601886 1.721667 4.767119 -8.772364 2.063159 -163.650882 79.091091 18.135988 -17.335860 -64.612319 -41.602344 -34.945587 15.038273 -1.336408 11.858258 8.306682 0.509889 
0.506911 90.342987 -240.120193 96.164392 -4.543619 49.942500 167.912223 6.289595 168.914253 -22.057138 3.920920 -15.390588 90.817112 9.471738 -6.172553 21.454560 0.003114 0.000018 145.434644 5.436490 -165.105726 -25.797488 0.693250 5.342707 72.215413 -2.263093 5.025176 21.454548 -0.003090 0.000000 6.745106 -1.357525 -1.556892 3.515048 -2.667769 -3.154588 3.197105 -2.686894 -3.138435 8.757044 -8.542241 5.506244 -5.052181 2.920590 3.737374 169.569965 -73.962910 9.317982 4.865577 52.351173 11.983407 -48.654965 -14.590609 1.710099 4.466985 -9.087107 1.858322 -164.427980 79.092190 17.343997 -16.651345 -64.165242 -42.270354 -34.069796 14.182044 -1.261351 11.381767 8.497920 1.443227 
-0.535345 90.197678 -239.207306 96.434287 -4.624491 50.812100 168.596868 6.274097 169.138884 -22.099912 3.766817 -14.927001 91.585713 9.160131 -6.453582 21.454557 0.003110 0.000019 146.740713 4.533210 -165.107857 -21.453600 -0.935514 4.983668 71.858269 -1.968982 5.000393 21.454555 -0.003092 -0.000000 6.675722 -1.347283 -1.549254 3.375802 -2.649445 -3.137409 3.057831 -2.668482 -3.121364 8.766629 -8.574649 5.081550 -4.967082 3.259522 3.214823 168.634024 -74.078613 10.271985 4.761078 52.844593 12.988111 -48.167997 -14.501817 1.688882 4.578987 -8.685712 2.049336 -164.169921 79.133294 17.608021 -16.136651 -63.604456 -42.817633 -32.916686 13.030457 -1.161810 11.627354 6.983619 4.875285 
-1.673915 90.090736 -238.309097 96.393497 -4.719898 51.778998 169.362067 5.854990 169.506908 -22.415825 3.479300 -14.440961 92.326795 8.835178 -6.802658 21.454560 0.003107 0.000016 148.020322 3.361604 -167.584756 -19.646119 -1.772113 6.410216 70.023359 -3.911495 2.007185 21.454553 -0.003092 -0.000000 6.624610 -1.291280 -1.453706 3.269831 -2.541590 -2.943475 2.951849 -2.559449 -2.928077 8.924055 -8.663753 4.531895 -4.806136 3.668872 2.554290 167.967029 -74.052692 10.956060 4.532345 53.090251 14.168490 -47.387060 -14.187342 1.643784 4.732759 -8.186652 2.227490 -163.645021 79.196986 18.141954 -15.395863 -63.135543 -43.476541 -31.604440 12.011848 -1.068608 11.786110 4.489545 7.783393 
-2.934394 90.088928 -237.420807 95.952792 -4.965023 53.017216 169.940612 4.875311 169.688277 -23.340577 3.293556 -13.678851 92.790128 8.294869 -7.353938 21.454557 0.003106 0.000017 149.333248 2.219899 -170.316450 -19.122059 -1.841440 8.677149 69.428190 -6.457322 -0.789890 21.454553 -0.003093 0.000001 6.581322 -1.142768 -1.329823 3.176829 -2.249160 -2.690509 2.858838 -2.265499 -2.676886 9.327511 -8.628448 3.847522 -4.707774 3.851530 1.848688 167.379031 -74.055397 11.558961 4.473156 53.564212 15.227190 -46.380878 -13.875392 1.592441 5.150738 -7.322348 2.971310 -163.849094 79.063121 17.935069 -14.451535 -62.550271 -44.321705 -30.123952 11.109608 -0.980910 11.768632 2.169629 9.551334 
